<svg width="548" height="548" viewBox="0 0 548 548" fill="none" xmlns="http://www.w3.org/2000/svg">
<path d="M274 0C425.326 0 548 122.674 548 274C548 332.938 529.389 387.529 497.727 432.22L448 314L345.5 392.5L390.979 521.844C355.502 538.618 315.847 548 274 548C232.353 548 192.877 538.707 157.53 522.084L203.087 391.744L100.087 313.244L50.7266 432.859C18.7876 388.051 0 333.22 0 274C0 122.674 122.674 0 274 0ZM273.938 423.418L352.006 478.977L323.513 389.98L274.8 372.65L273.938 423.418ZM222.526 388.266L191.028 476.243L270.938 423.367L271.8 372.6L222.526 388.266ZM306.04 328.257L275.349 369.865L323.691 385.39L399.475 326.752L306.04 328.257ZM222.364 385.044L270.687 369.454L239.939 327.887L146.503 326.508L222.364 385.044ZM243.378 327.123L273.279 368.16L303.165 325.969L275.294 236.775L243.378 327.123ZM212 74C212.668 74 213.452 74.0591 214.327 74.1738C202.335 74.0936 195.159 83.2812 193.087 87.7441L102.087 307.244H228.587L274.141 181.971C289.672 225.18 307.117 274.162 319.5 308L446.5 307.5L358 93.5C355.5 87 347.6 74 336 74H212Z" fill="url(#paint0_linear_154_5724)"/>
<defs>
<linearGradient id="paint0_linear_154_5724" x1="278.854" y1="-0.295763" x2="278.854" y2="548" gradientUnits="userSpaceOnUse">
<stop stop-color="#00A1FF"/>
<stop offset="1" stop-color="#1D65AB"/>
</linearGradient>
</defs>
</svg>
